<svg id="Capa_1" enable-background="new 0 0 512 512" height="512" viewBox="0 0 512 512" width="512" xmlns="http://www.w3.org/2000/svg"><g id="XMLID_1765_"><g id="XMLID_139_"><path id="XMLID_170_" d="m502 276h-114v-178.333c0-2.761-1.119-5.26-2.928-7.07l-.001-.001-87.667-87.667c-1.81-1.81-4.31-2.929-7.071-2.929h-280.333c-5.522 0-10 4.477-10 10v201.127c0 5.523 4.478 10 10 10s10-4.477 10-10v-191.127h260.333v77.667c0 5.523 4.478 10 10 10h77.667v168.333h-266c-5.522 0-10 4.477-10 10v206h-72v-190.873c0-5.523-4.478-10-10-10s-10 4.477-10 10v200.873c0 5.523 4.478 10 10 10h492c5.522 0 10-4.477 10-10v-216c0-5.523-4.478-10-10-10zm-201.667-188.333v-53.525l53.524 53.525zm191.667 404.333h-380v-196h380z"/><path id="XMLID_172_" d="m10 266.13c2.63 0 5.21-1.07 7.069-2.93 1.86-1.86 2.931-4.44 2.931-7.07 0-2.64-1.07-5.21-2.931-7.07-1.859-1.87-4.439-2.93-7.069-2.93s-5.21 1.06-7.07 2.93c-1.86 1.86-2.93 4.43-2.93 7.07 0 2.63 1.069 5.21 2.93 7.07 1.86 1.86 4.44 2.93 7.07 2.93z"/><path id="XMLID_1014_" d="m142 432.5c16.267 0 29.5 13.234 29.5 29.5 0 5.523 4.478 10 10 10h241c5.522 0 10-4.477 10-10 0-16.266 13.233-29.5 29.5-29.5 5.522 0 10-4.477 10-10v-57c0-5.523-4.478-10-10-10-16.267 0-29.5-13.234-29.5-29.5 0-5.523-4.478-10-10-10h-241c-5.522 0-10 4.477-10 10 0 16.266-13.233 29.5-29.5 29.5-5.522 0-10 4.477-10 10v57c0 5.523 4.478 10 10 10zm10-58.015c19.285-3.972 34.513-19.199 38.485-38.485h223.029c3.973 19.286 19.2 34.513 38.485 38.485v39.03c-19.285 3.972-34.513 19.199-38.485 38.485h-223.029c-3.973-19.286-19.2-34.513-38.485-38.485z"/><path id="XMLID_1017_" d="m302 432c20.953 0 38-17.047 38-38s-17.047-38-38-38-38 17.047-38 38 17.047 38 38 38zm0-56c9.925 0 18 8.075 18 18s-8.075 18-18 18-18-8.075-18-18 8.075-18 18-18z"/><path id="XMLID_1018_" d="m66 232h55.005c5.522 0 10-4.477 10-10s-4.478-10-10-10h-55.005c-5.522 0-10 4.477-10 10s4.478 10 10 10z"/><path id="XMLID_1023_" d="m167.005 222c0 5.523 4.478 10 10 10h140.749c5.522 0 10-4.477 10-10s-4.478-10-10-10h-140.749c-5.523 0-10 4.478-10 10z"/><path id="XMLID_1024_" d="m66 104h37.036c5.522 0 10-4.477 10-10s-4.478-10-10-10h-37.036c-5.522 0-10 4.477-10 10s4.478 10 10 10z"/><path id="XMLID_1025_" d="m215.274 104c5.522 0 10-4.477 10-10s-4.478-10-10-10h-56.238c-5.522 0-10 4.477-10 10s4.478 10 10 10z"/><path id="XMLID_1026_" d="m66 168.005h150.063c5.522 0 10-4.477 10-10s-4.478-10-10-10h-150.063c-5.522 0-10 4.477-10 10s4.478 10 10 10z"/><path id="XMLID_1027_" d="m317.754 168.005c5.522 0 10-4.477 10-10s-4.478-10-10-10h-46.479c-5.522 0-10 4.477-10 10s4.478 10 10 10z"/></g></g></svg>